<svg width="86" height="86" viewBox="0 0 86 86" fill="none" xmlns="http://www.w3.org/2000/svg">
<path d="M53.75 25.5312H21.5V32.25H53.75V25.5312ZM32.25 30.9062H24.1875V28.2188H32.25V30.9062ZM36.2812 30.9062H33.5938V28.2188H36.2812V30.9062ZM40.3125 30.9062H37.625V28.2188H40.3125V30.9062Z" fill="#02233F"/>
<path d="M25.8229 65.9338C27.2907 65.6916 28.7973 65.9481 30.1021 66.6625C31.4069 67.3769 32.4348 68.508 33.0214 69.875H53.7501V63.1562H23.208C24.2881 63.861 25.1846 64.8131 25.8229 65.9338ZM37.6251 65.8438H40.3126V68.5312H37.6251V65.8438ZM33.5939 65.8438H36.2814V68.5312H33.5939V65.8438Z" fill="#02233F"/>
<path d="M53.75 53.75H21.5V60.4688H53.75V53.75ZM32.25 59.125H24.1875V56.4375H32.25V59.125ZM36.2812 59.125H33.5938V56.4375H36.2812V59.125ZM40.3125 59.125H37.625V56.4375H40.3125V59.125Z" fill="#02233F"/>
<path d="M53.75 34.9375H21.5V41.6562H53.75V34.9375ZM32.25 40.3125H24.1875V37.625H32.25V40.3125ZM36.2812 40.3125H33.5938V37.625H36.2812V40.3125ZM40.3125 40.3125H37.625V37.625H40.3125V40.3125Z" fill="#02233F"/>
<path d="M33.6462 72.5625L32.211 72.6821C31.8897 72.7089 31.5694 72.6193 31.3087 72.4296C31.0479 72.2399 30.8641 71.9627 30.7907 71.6487C30.6701 71.0934 30.4314 70.5706 30.0907 70.1158C29.7501 69.661 29.3154 69.2848 28.8164 69.013C28.3174 68.7412 27.7657 68.58 27.1988 68.5405C26.6319 68.5009 26.0632 68.584 25.5313 68.7839C25.1995 68.9014 24.8348 68.884 24.5157 68.7355C24.1966 68.587 23.9485 68.3192 23.8247 67.9897C23.4152 66.8867 22.6536 65.9493 21.6578 65.3228C20.6619 64.6962 19.4873 64.4154 18.3157 64.5237C17.1441 64.632 16.0409 65.1235 15.1768 65.922C14.3127 66.7206 13.7359 67.7817 13.5356 68.9411C13.5037 69.1192 13.4361 69.2891 13.3369 69.4405C13.2377 69.5918 13.1089 69.7216 12.9583 69.822C12.8077 69.9224 12.6384 69.9914 12.4605 70.0247C12.2826 70.058 12.0998 70.0551 11.9231 70.0161C11.1871 69.8526 10.4249 69.8461 9.68612 69.9968C8.94738 70.1476 8.24868 70.4522 7.63552 70.891C7.02236 71.3297 6.5085 71.8927 6.1274 72.5432C5.74629 73.1938 5.5065 73.9173 5.42364 74.6667C5.34077 75.4161 5.41669 76.1745 5.64645 76.8926C5.87621 77.6107 6.25466 78.2724 6.75715 78.8345C7.25964 79.3966 7.8749 79.8465 8.56286 80.155C9.25082 80.4635 9.99605 80.6237 10.75 80.625H33.5938C34.6629 80.6319 35.691 80.2139 36.452 79.4628C37.2129 78.7117 37.6443 77.6891 37.6512 76.6199C37.6582 75.5508 37.2401 74.5227 36.489 73.7617C35.7379 73.0008 34.7153 72.5694 33.6462 72.5625V72.5625Z" fill="#02233F"/>
<path d="M53.75 44.3438H21.5V51.0625H53.75V44.3438ZM32.25 49.7188H24.1875V47.0312H32.25V49.7188ZM36.2812 49.7188H33.5938V47.0312H36.2812V49.7188ZM40.3125 49.7188H37.625V47.0312H40.3125V49.7188Z" fill="#02233F"/>
<path d="M10.75 47.0312H18.8125V30.9063C17.5507 30.9061 16.3293 31.3516 15.3638 32.1641C14.3984 32.9766 13.7509 34.104 13.5356 35.3473C13.5037 35.5255 13.4361 35.6954 13.3369 35.8467C13.2377 35.9981 13.1089 36.1279 12.9583 36.2283C12.8077 36.3287 12.6384 36.3976 12.4605 36.431C12.2826 36.4643 12.0998 36.4614 11.9231 36.4223C11.1871 36.2589 10.4249 36.2523 9.68612 36.4031C8.94738 36.5538 8.24868 36.8585 7.63552 37.2972C7.02236 37.736 6.5085 38.2989 6.1274 38.9495C5.74629 39.6 5.5065 40.3236 5.42364 41.073C5.34077 41.8224 5.41669 42.5808 5.64645 43.2989C5.87621 44.017 6.25466 44.6787 6.75715 45.2408C7.25964 45.8029 7.8749 46.2528 8.56286 46.5613C9.25082 46.8698 9.99605 47.0299 10.75 47.0312V47.0312Z" fill="#02233F"/>
<path d="M53.75 16.125H21.5V22.8438H53.75V16.125ZM32.25 21.5H24.1875V18.8125H32.25V21.5ZM36.2812 21.5H33.5938V18.8125H36.2812V21.5ZM40.3125 21.5H37.625V18.8125H40.3125V21.5Z" fill="#02233F"/>
<path d="M60.4686 13.4375L59.0859 13.5571C58.7645 13.5839 58.4442 13.4943 58.1835 13.3046C57.9227 13.1149 57.7389 12.8377 57.6655 12.5237C57.545 11.9684 57.3062 11.4456 56.9656 10.9908C56.6249 10.5359 56.1903 10.1598 55.6912 9.88802C55.1922 9.6162 54.6405 9.45503 54.0736 9.41549C53.5068 9.37594 52.938 9.45895 52.4061 9.65886C52.0748 9.77658 51.7106 9.75979 51.3916 9.61208C51.0725 9.46437 50.8241 9.1975 50.6995 8.86873C50.2901 7.76569 49.5285 6.82837 48.5326 6.20181C47.5367 5.57526 46.3621 5.29441 45.1905 5.40274C44.0189 5.51107 42.9157 6.00253 42.0516 6.80107C41.1875 7.59961 40.6107 8.66069 40.4104 9.82011C40.3785 9.99825 40.3109 10.1681 40.2117 10.3195C40.1125 10.4709 39.9837 10.6007 39.8331 10.7011C39.6826 10.8014 39.5132 10.8704 39.3353 10.9037C39.1575 10.9371 38.9747 10.9341 38.7979 10.8951C37.6835 10.627 36.5121 10.7302 35.4618 11.1892C34.4115 11.6481 33.5398 12.4376 32.9795 13.4375H55.0936C55.45 13.4375 55.7918 13.5791 56.0438 13.8311C56.2958 14.0831 56.4373 14.4248 56.4373 14.7812V21.5H60.4686C61.5377 21.5 62.5631 21.0753 63.3191 20.3193C64.0751 19.5633 64.4998 18.5379 64.4998 17.4687C64.4998 16.3996 64.0751 15.3742 63.3191 14.6182C62.5631 13.8622 61.5377 13.4375 60.4686 13.4375Z" fill="#02233F"/>
<path d="M16.125 10.75H25.5312V8.0625H14.7812C14.4249 8.0625 14.0831 8.20407 13.8311 8.45608C13.5791 8.70808 13.4375 9.04987 13.4375 9.40625V21.5H16.125V10.75Z" fill="#02233F"/>
<path d="M59.125 75.25H49.7188V77.9375H60.4688C60.8251 77.9375 61.1669 77.7959 61.4189 77.5439C61.6709 77.2919 61.8125 76.9501 61.8125 76.5938V64.5H59.125V75.25Z" fill="#02233F"/>
<path d="M77.7466 9.40626H83.3124V6.71876H77.7466C77.5117 5.80179 77.0382 4.96332 76.3744 4.28851C75.7106 3.61369 74.88 3.12655 73.967 2.87655C73.054 2.62656 72.0911 2.6226 71.1761 2.8651C70.2611 3.1076 69.4265 3.5879 68.7572 4.25725C68.0878 4.9266 67.6075 5.76114 67.365 6.67616C67.1225 7.59117 67.1265 8.55405 67.3765 9.46705C67.6265 10.38 68.1136 11.2106 68.7884 11.8744C69.4633 12.5383 70.3017 13.0117 71.2187 13.2467V19.0033C70.0663 19.2966 69.0445 19.9655 68.3147 20.9043C67.5849 21.8432 67.1887 22.9984 67.1887 24.1875C67.1887 25.3766 67.5849 26.5319 68.3147 27.4707C69.0445 28.4095 70.0663 29.0784 71.2187 29.3717V37.8158C70.0663 38.1091 69.0445 38.778 68.3147 39.7168C67.5849 40.6557 67.1887 41.8109 67.1887 43C67.1887 44.1891 67.5849 45.3444 68.3147 46.2832C69.0445 47.222 70.0663 47.8909 71.2187 48.1842V56.6283C70.0663 56.9216 69.0445 57.5905 68.3147 58.5293C67.5849 59.4682 67.1887 60.6234 67.1887 61.8125C67.1887 63.0016 67.5849 64.1569 68.3147 65.0957C69.0445 66.0345 70.0663 66.7034 71.2187 66.9967V72.7533C70.3017 72.9883 69.4633 73.4617 68.7884 74.1256C68.1136 74.7894 67.6265 75.62 67.3765 76.533C67.1265 77.446 67.1225 78.4089 67.365 79.3239C67.6075 80.2389 68.0878 81.0734 68.7572 81.7428C69.4265 82.4121 70.2611 82.8924 71.1761 83.1349C72.0911 83.3774 73.054 83.3735 73.967 83.1235C74.88 82.8735 75.7106 82.3863 76.3744 81.7115C77.0382 81.0367 77.5117 80.1982 77.7466 79.2813H83.3124V76.5938H77.7466C77.5052 75.6703 77.0221 74.8277 76.3472 74.1528C75.6722 73.4778 74.8297 72.9948 73.9062 72.7533V66.9967C74.8297 66.7552 75.6722 66.2722 76.3472 65.5972C77.0221 64.9223 77.5052 64.0797 77.7466 63.1563H83.3124V60.4688H77.7466C77.5052 59.5453 77.0221 58.7027 76.3472 58.0278C75.6722 57.3528 74.8297 56.8698 73.9062 56.6283V48.1842C74.8297 47.9427 75.6722 47.4597 76.3472 46.7847C77.0221 46.1098 77.5052 45.2672 77.7466 44.3438H83.3124V41.6563H77.7466C77.5052 40.7328 77.0221 39.8902 76.3472 39.2153C75.6722 38.5403 74.8297 38.0573 73.9062 37.8158V29.3717C74.8297 29.1302 75.6722 28.6472 76.3472 27.9722C77.0221 27.2973 77.5052 26.4547 77.7466 25.5313H83.3124V22.8438H77.7466C77.5052 21.9203 77.0221 21.0777 76.3472 20.4028C75.6722 19.7278 74.8297 19.2448 73.9062 19.0033V13.2467C74.8297 13.0052 75.6722 12.5222 76.3472 11.8472C77.0221 11.1723 77.5052 10.3297 77.7466 9.40626V9.40626ZM69.8749 8.06251C69.8749 7.53097 70.0326 7.01137 70.3279 6.56941C70.6232 6.12746 71.0429 5.78299 71.534 5.57958C72.0251 5.37617 72.5654 5.32295 73.0868 5.42665C73.6081 5.53035 74.0869 5.78631 74.4628 6.16216C74.8387 6.53801 75.0946 7.01688 75.1983 7.5382C75.302 8.05953 75.2488 8.59989 75.0454 9.09097C74.842 9.58205 74.4975 10.0018 74.0555 10.2971C73.6136 10.5924 73.094 10.75 72.5624 10.75C71.8497 10.75 71.1661 10.4669 70.6621 9.96286C70.1581 9.45885 69.8749 8.77528 69.8749 8.06251ZM75.2499 77.9375C75.2499 78.469 75.0923 78.9886 74.797 79.4306C74.5017 79.8726 74.082 80.217 73.5909 80.4204C73.0998 80.6238 72.5595 80.6771 72.0381 80.5734C71.5168 80.4697 71.038 80.2137 70.6621 79.8379C70.2862 79.462 70.0303 78.9831 69.9266 78.4618C69.8229 77.9405 69.8761 77.4001 70.0795 76.9091C70.2829 76.418 70.6274 75.9982 71.0694 75.7029C71.5113 75.4076 72.0309 75.25 72.5624 75.25C73.2752 75.25 73.9588 75.5332 74.4628 76.0372C74.9668 76.5412 75.2499 77.2247 75.2499 77.9375ZM75.2499 61.8125C75.2499 62.344 75.0923 62.8636 74.797 63.3056C74.5017 63.7476 74.082 64.092 73.5909 64.2954C73.0998 64.4988 72.5595 64.5521 72.0381 64.4484C71.5168 64.3447 71.038 64.0887 70.6621 63.7129C70.2862 63.337 70.0303 62.8581 69.9266 62.3368C69.8229 61.8155 69.8761 61.2751 70.0795 60.7841C70.2829 60.293 70.6274 59.8732 71.0694 59.5779C71.5113 59.2826 72.0309 59.125 72.5624 59.125C73.2752 59.125 73.9588 59.4082 74.4628 59.9122C74.9668 60.4162 75.2499 61.0997 75.2499 61.8125ZM75.2499 43C75.2499 43.5315 75.0923 44.0511 74.797 44.4931C74.5017 44.9351 74.082 45.2795 73.5909 45.4829C73.0998 45.6863 72.5595 45.7396 72.0381 45.6359C71.5168 45.5322 71.038 45.2762 70.6621 44.9004C70.2862 44.5245 70.0303 44.0456 69.9266 43.5243C69.8229 43.003 69.8761 42.4626 70.0795 41.9715C70.2829 41.4805 70.6274 41.0607 71.0694 40.7654C71.5113 40.4701 72.0309 40.3125 72.5624 40.3125C73.2752 40.3125 73.9588 40.5957 74.4628 41.0997C74.9668 41.6037 75.2499 42.2872 75.2499 43ZM75.2499 24.1875C75.2499 24.719 75.0923 25.2386 74.797 25.6806C74.5017 26.1226 74.082 26.467 73.5909 26.6704C73.0998 26.8738 72.5595 26.9271 72.0381 26.8234C71.5168 26.7197 71.038 26.4637 70.6621 26.0879C70.2862 25.712 70.0303 25.2331 69.9266 24.7118C69.8229 24.1905 69.8761 23.6501 70.0795 23.159C70.2829 22.668 70.6274 22.2482 71.0694 21.9529C71.5113 21.6576 72.0309 21.5 72.5624 21.5C73.2752 21.5 73.9588 21.7832 74.4628 22.2872C74.9668 22.7912 75.2499 23.4747 75.2499 24.1875Z" fill="#02233F"/>
<path d="M61.8125 59.125H59.125V61.8125H61.8125V59.125Z" fill="#02233F"/>
<path d="M16.125 24.1875H13.4375V26.875H16.125V24.1875Z" fill="#02233F"/>
</svg>
